<svg xmlns="http://www.w3.org/2000/svg" xmlns:xlink="http://www.w3.org/1999/xlink" width="151" height="161" version="1.1" viewBox="0 0 151 161"><title>Ignite - Trophies/azure-fundamentals</title><desc>Created with Sketch.</desc><defs><path id="path-1" d="M125,150 L15,150 C6.71572875,150 1.01453063e-15,143.284271 0,135 C0,113.333333 0,91.6666667 0,70 C0,31.34 31.33998,0 70.0002438,0 C108.66002,0 140,31.34 140,70 C140,91.6666667 140,113.333333 140,135 C140,143.284271 133.284271,150 125,150 Z"/><filter id="filter-3" width="132%" height="153.3%" x="-16%" y="-26.7%" filterUnits="objectBoundingBox"><feOffset dx="0" dy="2" in="SourceAlpha" result="shadowOffsetOuter1"/><feGaussianBlur in="shadowOffsetOuter1" result="shadowBlurOuter1" stdDeviation="2"/><feColorMatrix in="shadowBlurOuter1" result="shadowMatrixOuter1" type="matrix" values="0 0 0 0 0 0 0 0 0 0 0 0 0 0 0 0 0 0 0.1 0"/><feMerge><feMergeNode in="shadowMatrixOuter1"/><feMergeNode in="SourceGraphic"/></feMerge></filter><linearGradient id="linearGradient-4" x1="50%" x2="50%" y1="97.569%" y2="-5.31%"><stop offset="0%" stop-color="#0078D4"/><stop offset="16%" stop-color="#1380DA"/><stop offset="53%" stop-color="#3C91E5"/><stop offset="82%" stop-color="#559CEC"/><stop offset="100%" stop-color="#5EA0EF"/></linearGradient><linearGradient id="linearGradient-5" x1="50%" x2="50%" y1="125.699%" y2="-26.649%"><stop offset="0%" stop-color="#198AB3"/><stop offset="0%" stop-color="#198AB3"/><stop offset="11%" stop-color="#22A5CB"/><stop offset="23%" stop-color="#29BADE"/><stop offset="37%" stop-color="#2EC9EB"/><stop offset="53%" stop-color="#31D1F3"/><stop offset="78%" stop-color="#32D4F5"/></linearGradient></defs><g id="Badges-2.0" fill="none" fill-rule="evenodd" stroke="none" stroke-width="1"><g id="Ignite---Trophies-1" transform="translate(-88.000000, -46.000000)"><g id="Ignite---Trophies/azure-fundamentals" transform="translate(113.000000, 71.000000)"><g id="Plate/Cup-Down" transform="translate(-0.000000, 0.000000)"><g id="BG" fill-rule="evenodd" stroke-width="1" transform="translate(-20.000000, -20.000000)"><mask id="mask-2" fill="#fff"><use xlink:href="#path-1"/></mask><path stroke="#FFF" stroke-width="5" d="M125,152.5 L15,152.5 C5.33501688,152.5 -2.5,144.664983 -2.5,135 C-2.5,118.75 -2.5,118.75 -2.5,102.5 C-2.5,86.25 -2.5,86.25 -2.5,70 C-2.5,29.9592423 29.959314,-2.5 70.0002438,-2.5 C110.040764,-2.5 142.5,29.9593204 142.5,70 C142.5,86.25 142.5,86.25 142.5,102.5 C142.5,118.75 142.5,118.75 142.5,135 C142.5,144.664983 134.664983,152.5 125,152.5 Z"/><g id="Color-/-SQL-Server" fill="#0078D4" mask="url(#mask-2)"><rect id="Rectangle" width="140" height="150" x="0" y="0"/></g></g><path id="Inner-Rim" stroke="#000" stroke-width="5" d="M105,127.5 C111.903559,127.5 117.5,121.903559 117.5,115 C117.5,98.75 117.5,98.75 117.5,82.5 C117.5,66.25 117.5,66.25 117.5,50 C117.5,12.7207412 87.2793374,-17.5 50.0002438,-17.5 C12.7207352,-17.5 -17.5,12.7206685 -17.5,50 C-17.5,66.25 -17.5,66.25 -17.5,82.5 C-17.5,98.75 -17.5,98.75 -17.5,115 C-17.5,121.903559 -11.9035594,127.5 -5,127.5 L105,127.5 Z" opacity=".2"/><path id="White" fill="#FFF" fill-rule="evenodd" d="M50.0001741,100 C22.3857,100 0,77.6142857 0,50 C0,22.3857143 22.3857,0 50.0001741,0 C77.6143,0 100,22.3857143 100,50 C100,77.6142857 77.6143,100 50.0001741,100 Z" opacity=".8"/></g><g id="Group-31" filter="url(#filter-3)" transform="translate(12.000000, 24.000000)"><g id="Icon-migrate-281-Azure-Migrate" fill-rule="nonzero"><path id="Path" fill="url(#linearGradient-4)" d="M75,29.4165187 C74.7938862,22.7705084 69.8375753,17.2522407 63.2896552,16.3784307 C62.886363,7.02017644 55.0869897,-0.27436862 45.7862069,0.0079241125 C38.421243,-0.0697729772 31.7997398,4.51286568 29.2344828,11.4631132 C21.2496574,12.3973399 15.1735621,19.1185002 15,27.2087913 C15.4674131,36.1981044 22.9428073,43.1884631 31.8827586,42.9961246 L60.8482759,42.9961246 L61.5931034,42.9961246 C68.9828093,42.8833588 74.9334579,36.8560531 75,29.4165187 L75,29.4165187 Z"/><path id="Path" fill="url(#linearGradient-5)" d="M62,31.1650289 C61.7967505,24.3229975 56.6912642,18.6331208 49.9328859,17.7166741 C49.4610278,8.11915679 41.4002116,0.679419211 31.8322148,1.01064337 C24.2124739,0.846810447 17.314266,5.51284559 14.6053691,12.6630998 C6.46511729,13.6671508 0.266824775,20.4733403 0,28.7008894 C0.360992514,38.0352102 8.17545874,45.3184146 17.4765101,44.9892694 L19.0161074,44.9892694 L47.2697987,44.9892694 L48.0187919,44.9892694 C55.6416383,44.9456342 61.8422518,38.8146352 62,31.1650289 Z"/></g><g id="Group-3" fill="#FFF" transform="translate(18.000000, 14.000000)"><polygon id="Fill-1" points="6.588 7.402 0 20 5.902 20 14 0"/><polygon id="Fill-2" points="12.897 10.618 18.853 18.863 8 21 26 21 15.941 1"/></g></g></g></g></g></svg>